<svg id="Layer_1" data-name="Layer 1" xmlns="http://www.w3.org/2000/svg" viewBox="0 0 96.11 88.18"><title>icon</title><path d="M411.07,98.28c.52,7.65-1.7,10.35-9,11.36-5.23.72-10.28-.43-15.29-1.43a34.48,34.48,0,0,0-18.16,1,43.34,43.34,0,0,1-7.77,1.68c-8.84,1.25-13.92-3.64-13.2-12.57.5,0,1.15.18,1.47-.07,6.54-4.9,14.54-7.33,19.83-14.54,7.41-10.11,10.33-9.7,16.93.66C391.81,93.69,401.1,96.46,411.07,98.28Z" transform="translate(-331.31 -22.87)" style="fill:#4f4f51"/><path d="M408.38,41.36a23.6,23.6,0,0,1-4.65,14.47c-5,6.66-12.19,5.85-15.76-1.63a38.21,38.21,0,0,1-3.26-11.95c3-2.45,3.3-6.58,5.85-9.36,4.5-4.9,9.65-6.57,13.35.35C405.35,36,406.88,38.66,408.38,41.36Z" transform="translate(-331.31 -22.87)" style="fill:#4f4f51"/><path d="M376.48,38.43A27.7,27.7,0,0,1,374,52c-3.06,6.53-10.12,7.62-15,2.34a22.2,22.2,0,0,1-5.83-11.84c3.24-3.7,4.3-8.86,8.46-12,3-2.27,5.46-2.41,8.38,0C372.73,32.69,374.25,35.83,376.48,38.43Z" transform="translate(-331.31 -22.87)" style="fill:#4f4f51"/><path d="M355.21,69.29a22.33,22.33,0,0,1-3.73,12.65c-4.14,6.32-10.84,6.84-15.74,1.1-2.34-2.75-4.37-5.82-4.3-9.73,1.53,0,1.66-1.21,2.15-2.28a24.43,24.43,0,0,1,5.29-7.73c4-3.81,6.78-3.92,10.71-.18C351.6,65,353.35,67.23,355.21,69.29Z" transform="translate(-331.31 -22.87)" style="fill:#4f4f51"/><path d="M411.07,98.28c-10-1.82-19.26-4.59-25.23-14-6.6-10.35-9.53-10.77-16.93-.66-5.29,7.22-13.29,9.64-19.83,14.54-.32.24-1,.05-1.47.07C355.09,88.41,364.12,80,373.47,72c2.82-2.41,6.94-1.47,10.19.91a24,24,0,0,1,6.08,7.15c3.65,6,8.3,10.64,15.07,13C407.47,94,410,95.36,411.07,98.28Z" transform="translate(-331.31 -22.87)" style="fill:#f58f7c"/><path d="M424.35,76.39c-.72,2.65-2.51,4.63-4.33,6.5-3.15,3.25-6.84,5.54-11.48,3.23-4.9-2.44-5.67-6.89-5-11.82a2.77,2.77,0,0,0,2.71-1.84c1.58-3.85,4.88-6.24,7.6-9.12,1.67-1.77,3.88-3.2,6.11-2.41,2.5.88,3.24,3.53,3.42,6.17C423.56,70.2,422.69,73.43,424.35,76.39Z" transform="translate(-331.31 -22.87)" style="fill:#4f4f51"/><path d="M424.35,76.39c-1.66-3-.79-6.19-1-9.3-.18-2.64-.92-5.29-3.42-6.17-2.23-.79-4.44.64-6.11,2.41-2.71,2.89-6,5.27-7.6,9.12a2.77,2.77,0,0,1-2.71,1.84,32.28,32.28,0,0,1,9.06-16.12c2.58-2.55,5.74-4.15,9.42-2.79s4.78,4.84,5.24,8.33A17.66,17.66,0,0,1,424.35,76.39Z" transform="translate(-331.31 -22.87)" style="fill:#f58f7c"/><path d="M408.38,41.36c-1.5-2.7-3-5.38-4.48-8.11-3.7-6.93-8.85-5.26-13.35-.35-2.55,2.78-2.83,6.91-5.85,9.36A17.94,17.94,0,0,1,389,27.5c5.63-6.87,13.61-6,17.67,1.87A17.63,17.63,0,0,1,408.38,41.36Z" transform="translate(-331.31 -22.87)" style="fill:#f58f7c"/><path d="M376.48,38.43c-2.23-2.6-3.76-5.74-6.49-8-2.92-2.4-5.38-2.26-8.38,0-4.16,3.15-5.22,8.31-8.46,12-1.61-6.75,1.22-14.6,6.42-17.82,6.69-4.14,14.68-.39,16.62,7.91A11.47,11.47,0,0,1,376.48,38.43Z" transform="translate(-331.31 -22.87)" style="fill:#f58f7c"/><path d="M355.21,69.29c-1.87-2.06-3.62-4.25-5.62-6.17-3.93-3.75-6.73-3.64-10.71.18A24.43,24.43,0,0,0,333.59,71c-.48,1.07-.62,2.28-2.15,2.28-.63-4.89,1.07-9.11,3.89-12.94,5.9-8,14.77-6.75,18.92,2.66A10.4,10.4,0,0,1,355.21,69.29Z" transform="translate(-331.31 -22.87)" style="fill:#f58f7c"/></svg>